<svg id="Calque_2" data-name="Calque 2" xmlns="http://www.w3.org/2000/svg" viewBox="0 0 949.26 244.01"><defs><style>.cls-1{fill:#133557;}.cls-2{fill:#e30613;}.cls-3{fill:#fff;}.cls-4{fill:#fab62c;}.cls-5{fill:#245aa6;}.cls-6{fill:#4e91ce;}</style></defs><path class="cls-1" d="M331.81,553.13q-18.54,0-33.21-8.53l4.61-15a69.29,69.29,0,0,0,14.3,5.87,54.08,54.08,0,0,0,15.07,2.24q9,0,13.63-3.88t4.61-11.15q0-9.66-12.86-13.36l-5.11-1.5c-2.79-.81-5.41-1.61-7.86-2.38s-4.21-1.36-5.28-1.78q-20.62-7.28-20.62-27.13,0-13.9,9.89-21.46t26.25-7.55q18.52,0,31.95,7.62L361.45,469Q347.74,462.8,336,462.8q-8.46,0-12.76,3t-4.58,9.89q0,8.54,8.46,11.12,1.68.63,8.25,2.73l8.53,2.72Q358,496.85,364,503.7t6.05,19.09q0,14.61-10.35,22.47T331.81,553.13Z" transform="translate(-17.29 -354.68)"/><path class="cls-1" d="M417.45,553.2q-17.06,0-26.85-11.05t-9.78-29.08q0-18.6,9.78-29.33T418.22,473q17.2,0,26.95,10.94t9.76,29.12q0,18.39-9.86,29.26T417.45,553.2Zm.49-13.91q9.3,0,14-6.79t4.69-19.43q0-12.8-4.69-19.51t-14.12-6.71q-9.3,0-14,6.75t-4.72,19.54q0,12.58,4.76,19.36T417.94,539.29Z" transform="translate(-17.29 -354.68)"/><path class="cls-1" d="M496.8,552.78a39.69,39.69,0,0,1-13.1-1.85,17,17,0,0,1-8.22-5.91,24.53,24.53,0,0,1-4.19-9.65,67.81,67.81,0,0,1-1.19-13.91V446.58l18.32-1.19v75.72q0,10.35,2.44,14t9.51,3.67a65.62,65.62,0,0,0,8.88-.77l.49,13.07c-.05,0-.62.12-1.71.35s-2.15.43-3.15.6-2.27.32-3.81.49A41.47,41.47,0,0,1,496.8,552.78Z" transform="translate(-17.29 -354.68)"/><path class="cls-1" d="M553.93,553.2q-18.54,0-28.84-10.66t-10.32-29.47q0-18.32,9.72-29.16T551,473q15.87,0,24.64,9.93t8.78,26.35c0,.8,0,2.08,0,3.85s0,3.07,0,3.91H533.23q.28,10.77,5.91,16.68t15.48,5.91a48.39,48.39,0,0,0,24.2-6.58l2.58,13Q569.87,553.2,553.93,553.2Zm-20.35-47.68h33.56q0-9.37-4.26-14.4t-11.82-5a16.12,16.12,0,0,0-11.92,4.9Q534.28,495.87,533.58,505.52Z" transform="translate(-17.29 -354.68)"/><path class="cls-1" d="M599.3,551.73V446.58l18.32-1.19v47.19l-.42,15.52,1.43-1.39,1.5-1.47q3.86-4.55,8.36-9.37t11.39-11.82q6.9-7,9-9.15h21.81l-31.6,32.72,33.63,44.11H650.55l-25.31-34.89-7.62,6v28.87Z" transform="translate(-17.29 -354.68)"/><path class="cls-1" d="M708.23,552.78a39.71,39.71,0,0,1-13.11-1.85A17.09,17.09,0,0,1,686.9,545a24.53,24.53,0,0,1-4.19-9.65,68.52,68.52,0,0,1-1.19-13.91V446.58l18.32-1.19v75.72q0,10.35,2.44,14c1.64,2.44,4.8,3.67,9.51,3.67a65.62,65.62,0,0,0,8.88-.77l.49,13.07s-.62.12-1.71.35-2.15.43-3.15.6-2.27.32-3.81.49A41.44,41.44,0,0,1,708.23,552.78Z" transform="translate(-17.29 -354.68)"/><path class="cls-1" d="M765.35,553.2q-18.54,0-28.84-10.66t-10.32-29.47q0-18.32,9.72-29.16t26.5-10.9q15.87,0,24.64,9.93t8.78,26.35c0,.8,0,2.08,0,3.85s0,3.07,0,3.91H744.65q.29,10.77,5.91,16.68t15.49,5.91a48.35,48.35,0,0,0,24.19-6.58l2.58,13Q781.29,553.2,765.35,553.2ZM745,505.52h33.56q0-9.37-4.26-14.4t-11.82-5a16.12,16.12,0,0,0-11.92,4.9Q745.7,495.87,745,505.52Z" transform="translate(-17.29 -354.68)"/><path class="cls-1" d="M830.72,553.2q-10.69,0-17.31-5.91t-6.6-17q0-12,7.83-17.73t23.63-7.3c1.44-.19,3-.37,4.68-.56s3.57-.37,5.67-.56,3.75-.35,5-.49v-4.05q0-7-3.22-10.18t-9.78-3.18q-9.37,0-23.15,5.25-.06-.21-2.3-6.37c-1.5-4.1-2.26-6.2-2.31-6.29a73.82,73.82,0,0,1,29.36-5.8q15.52,0,22.59,6.74t7.06,21.85v50.13H858.26c0-.18-.56-1.75-1.53-4.68s-1.47-4.5-1.47-4.69A43.15,43.15,0,0,1,844,550.58,30.69,30.69,0,0,1,830.72,553.2Zm5-13a20,20,0,0,0,11.08-3.05,17.71,17.71,0,0,0,6.75-7.37V515c-.14,0-1.36.09-3.67.28s-3.56.28-3.74.28q-11.11,1-16.29,4.19c-3.45,2.15-5.18,5.59-5.18,10.35,0,3.26,1,5.77,2.87,7.51S832.14,540.2,835.68,540.2Z" transform="translate(-17.29 -354.68)"/><path class="cls-1" d="M890.28,551.73V474.9H905l2,9.71Q918.81,473,933.14,473q13.43,0,20.1,7.72t6.68,22.41v48.59H941.53V505.38q-.07-9.3-3-13.91T928,486.85a20.26,20.26,0,0,0-10.87,3,18.42,18.42,0,0,0-7.17,7.66q-1.33,5.44-1.33,16.78v37.4Z" transform="translate(-17.29 -354.68)"/><path class="cls-1" d="M820.39,589.26V559.4h9.31c4,0,6.91.57,8.85,1.73s2.91,3.08,2.91,5.77a9.07,9.07,0,0,1-.08,1.28,6.37,6.37,0,0,1-.37,1.44,5.92,5.92,0,0,1-.75,1.46,6.06,6.06,0,0,1-1.3,1.27,6.53,6.53,0,0,1-2,1,7.32,7.32,0,0,1,4.24,2.58,7.44,7.44,0,0,1,1.47,4.69,7.56,7.56,0,0,1-3,6.45c-2,1.48-4.75,2.22-8.26,2.22Zm5.52-17.53h4.73c3.66,0,5.48-1.39,5.48-4.18a3.34,3.34,0,0,0-1.58-3.22,10.85,10.85,0,0,0-5-.88h-3.61Zm0,13.53h4.79q6.36,0,6.36-5a4.09,4.09,0,0,0-1.59-3.61,8.76,8.76,0,0,0-4.91-1.1h-4.65Z" transform="translate(-17.29 -354.68)"/><path class="cls-1" d="M848.23,598.69a24.8,24.8,0,0,1-2.77-.16l-.27-4.14a22.07,22.07,0,0,0,2.39.11,4.52,4.52,0,0,0,4.83-3.35c.05-.13.32-.9.81-2.3l-9-22h5.71l5.89,16.24c.44-1.62,1.41-4.62,2.93-9l2.49-7.23h5.71q-9.32,24.61-9.4,24.82a11.66,11.66,0,0,1-3.64,5.39A9.33,9.33,0,0,1,848.23,598.69Z" transform="translate(-17.29 -354.68)"/><path class="cls-2" d="M881.47,589.26V559.4H887v29.86Z" transform="translate(-17.29 -354.68)"/><path class="cls-2" d="M902,589.56a11.46,11.46,0,0,1-3.8-.54,4.9,4.9,0,0,1-2.38-1.7,7.28,7.28,0,0,1-1.21-2.74,17.91,17.91,0,0,1-.36-3.9V570.1h-3.67l.21-2.9,3.83-.34,1.71-6.08,3.26,0v6.1h5.57v3.24h-5.57v10.68a6.7,6.7,0,0,0,.74,3.63,3,3,0,0,0,2.71,1.08,15.86,15.86,0,0,0,2.48-.21l.15,3.83-.5.1-.88.16c-.28,0-.63.09-1.07.13S902.42,589.56,902,589.56Z" transform="translate(-17.29 -354.68)"/><path class="cls-2" d="M919.63,589.68c-3.6,0-6.41-1-8.41-3.1s-3-4.94-3-8.59a12.25,12.25,0,0,1,2.84-8.5,9.88,9.88,0,0,1,7.72-3.18A9.09,9.09,0,0,1,926,569.2a11.2,11.2,0,0,1,2.55,7.68c0,.24,0,.61,0,1.13s0,.89,0,1.14H913.6a7,7,0,0,0,1.72,4.86,5.92,5.92,0,0,0,4.51,1.72,14.06,14.06,0,0,0,7-1.92l.76,3.8A15,15,0,0,1,919.63,589.68Zm-5.93-13.9h9.78a6.27,6.27,0,0,0-1.24-4.19,4.28,4.28,0,0,0-3.45-1.47,4.69,4.69,0,0,0-3.47,1.42A6.45,6.45,0,0,0,913.7,575.78Z" transform="translate(-17.29 -354.68)"/><path class="cls-2" d="M932.86,589.26v-22.4h4.32l.61,2.85c.27-.34.53-.64.78-.91a9.7,9.7,0,0,1,1-.89,6.69,6.69,0,0,1,1.41-.83,9.31,9.31,0,0,1,1.83-.55,11.62,11.62,0,0,1,2.34-.22,7.52,7.52,0,0,1,4.27,1.08,6.21,6.21,0,0,1,2.25,2.52,8.08,8.08,0,0,1,3.12-2.67,9.64,9.64,0,0,1,4.26-.93c2.57,0,4.45.72,5.65,2.18s1.81,3.6,1.81,6.46v14.31h-5.36V576.54a11.22,11.22,0,0,0-.73-4.74,2.79,2.79,0,0,0-2.76-1.46,4.63,4.63,0,0,0-4.48,2.82,9.94,9.94,0,0,0-.78,3v13.11H947.1v-13a9.72,9.72,0,0,0-.79-4.46,3,3,0,0,0-2.88-1.47,5,5,0,0,0-2.91.86,5.47,5.47,0,0,0-1.85,2.24,22,22,0,0,0-.47,4.93v10.87Z" transform="translate(-17.29 -354.68)"/><path class="cls-3" d="M84.56,492.06c3.14,2.12,5.25,4.25,6.24,7.17,1.63,4.79,1,9.14-2.89,12.79-2.33,2.21-4.53,4.56-6.77,6.87a3.06,3.06,0,0,0-.44.82,2.5,2.5,0,0,0,.87-.05,6,6,0,0,0,1.12-.71Q96.84,509,111,499c7.14-5.08,14.2-10.27,21.32-15.37,5.6-4,11.27-7.88,16.85-11.9,11.61-8.37,23.16-16.84,34.78-25.2,8.64-6.21,17.38-12.29,26-18.48a48.35,48.35,0,0,0,5.14-4.21c3.92-3.77,7.76-7.63,11.61-11.47q7.06-7.07,14.07-14.16a8.76,8.76,0,0,0,.9-1.32,7.19,7.19,0,0,0-1.42.48c-6.33,3.88-12.64,7.81-19,11.68-5.58,3.41-11.05,7-16.84,10.05s-12.53.17-15.33-5.74a11,11,0,0,1-.39-9.61c.8-1.83,1.6-3.65,2.36-5.49.46-1.13.86-2.28,1.26-3.42a1.55,1.55,0,0,0,0-.64c-.24.11-.56.16-.7.35-1.9,2.46-3.81,4.91-5.64,7.41-2.93,4-8.82,6-13.33,4.56A11.92,11.92,0,0,1,164.22,395q.1-17,.1-33.93c0-1.77-.12-3.55-.24-5.32a3.33,3.33,0,0,0-.51-1.06,4.75,4.75,0,0,0-.69,1.07,21.31,21.31,0,0,0-.61,2.25c-1.7,7.23-3.35,14.49-5.11,21.71-1.31,5.39-2.54,10.8-4.18,16.09s-7.41,8.14-12.7,7.24c-4.84-.83-7.4-4.15-9.41-8.1-.9-1.77-1.44-3.73-2.25-5.55a19.63,19.63,0,0,0-1.56-2.43,13.23,13.23,0,0,0-.22,2.79c.25,2.09.73,4.15,1,6.23.61,4.65,0,9-4.16,11.88a18.82,18.82,0,0,1-5.13,2.09,10.22,10.22,0,0,1-10.21-2.39c-2.65-2.34-5.06-5-7.56-7.47Q90.1,389.38,79.4,378.66a5.52,5.52,0,0,0-1.07-.67,3.72,3.72,0,0,0,.2,1.37c3.17,5.21,6.4,10.4,9.59,15.6,3.84,6.23,7.72,12.45,11.47,18.73,2.42,4.05,2.17,10-.57,13.23-3.16,3.73-7.74,6.14-13.38,4.12-2-.71-3.9-1.59-5.84-2.39-.92-.38-1.82-.83-2.76-1.13a5.59,5.59,0,0,0-1.53,0,6.72,6.72,0,0,0,.85,1c2.1,1.63,4.33,3.11,6.31,4.87,1.62,1.45,3.54,3,4.33,4.89,3.22,7.75-.3,16.52-10.62,16.86-10.08.33-20.18.08-30.27.08-3.11,0-6.22,0-9.33,0a5,5,0,0,0-1.2.35c.36.33.67.85,1.08,1,2.25.63,4.51,1.17,6.78,1.71,10.69,2.53,21.41,5,32.07,7.59,5.26,1.29,8.27,5.45,8.59,11.28a11.2,11.2,0,0,1-7.23,11.23c-2.56,1.06-5.1,2.16-7.64,3.29-.35.15-.59.54-.89.82a3.63,3.63,0,0,0,1.12.26c3.75-.39,7.48-.93,11.24-1.19A15.57,15.57,0,0,1,84.56,492.06Zm102.5,33.21c-2,4.6-3.64,8.13-5.17,11.69-2.33,5.39-4.59,10.81-6.93,16.19s-4.72,10.51-7,15.83c-1.65,3.93-.18,6.08,4,6q27.43-.5,54.89-1c6.28-.12,8.57-2,10.39-8.12,3.25-10.94,6.58-21.85,9.86-32.78,1.47-4.88,2.93-9.76,4.29-14.67.73-2.64-.29-4-3-4.3a8.84,8.84,0,0,0-2,0c-17,2-33.93,4-50.91,5.91C191.28,520.48,188.08,522.1,187.06,525.27Zm-70.17,26-.06,0c-3.64,6.62-7.36,13.2-10.89,19.87-1.93,3.66-1,5.1,3.17,5.06,5.22-.06,10.44-.16,15.65-.26l25-.49c4-.08,7.1-1.5,8.76-5.41.7-1.63,1.66-3.15,2.39-4.77q6.8-15,13.53-30c1.23-2.73,2.53-5.43,3.65-8.21,1.36-3.41.24-4.93-3.36-4.52-13.12,1.51-26.24,3.12-39.36,4.61a10.2,10.2,0,0,0-8.36,5.76C123.68,539,120.26,545.13,116.89,551.26ZM209,474.77c-4.37,10-8.57,19.66-12.77,29.31-.62,1.42-1.22,2.85-1.82,4.28-1.3,3.08-.35,4.52,2.91,4.35.88-.05,1.77-.18,2.65-.29,16.61-2.17,33.23-4.3,49.84-6.56a7.91,7.91,0,0,0,4.42-1.94,14.26,14.26,0,0,0,3.1-5.36c2.55-8,4.88-16.13,7.29-24.21,1-3.51,2.12-7,3.09-10.53.81-3,0-3.87-3.11-3.62a31.93,31.93,0,0,0-3.61.59q-12.9,2.55-25.78,5.15Q225,468,214.69,470.25C211.9,470.84,209.83,472.37,209,474.77Zm-91.39,63.65.21.12a40.83,40.83,0,0,0,2.52-4.69c.48-1.25,1-2.87.52-4-.24-.62-2.31-.54-3.57-.75a2.19,2.19,0,0,0-.65.1c-9.37,1.12-18.71,2.45-28.11,3.27a11.64,11.64,0,0,0-9.63,6q-3.65,6-7.42,11.84c-2.4,3.73-4.92,7.37-7.33,11.09s-5,7.63-7.27,11.54c-1.79,3-1,4.14,2.55,4.08,10.21-.17,20.42-.46,30.62-.41a9.36,9.36,0,0,0,8.92-5.2Q108.3,555,117.61,538.42ZM226.53,434.21c-2.63,6-4.95,11.1-7.2,16.27-1.49,3.46-3,6.93-4.29,10.44-.89,2.33,0,3.43,2.44,3.22a12.45,12.45,0,0,0,1.3-.26Q242,459,265.32,454.12a9.1,9.1,0,0,0,7.58-7c2.43-8.63,4.9-17.26,7.71-25.77,1.11-3.37-.52-4.55-3.63-3.89-.43.09-.86.2-1.29.32-14.15,3.77-28.28,7.59-42.44,11.28C229.87,430,227.43,431.7,226.53,434.21ZM145.07,501h0q-4.09,7.44-8.17,14.88a15,15,0,0,0-1.18,2.38c-.44,1.34.09,2.23,1.55,2.23a26.26,26.26,0,0,0,3.64-.29q13.68-1.79,27.37-3.6c3.52-.47,7-.89,10.55-1.44a9,9,0,0,0,6.8-4.83c1.28-2.45,2.33-5,3.45-7.56,3.69-8.41,7.38-16.82,11-25.27a15.21,15.21,0,0,0,.63-3.42c-1.25-.18-2.49-.4-3.73-.52a4.85,4.85,0,0,0-1.3.29q-17.61,3.51-35.22,7a9.43,9.43,0,0,0-7.06,5C150.68,490.92,147.85,496,145.07,501Zm138.81-91.39a8.64,8.64,0,0,0,.44-1c2.29-7.65,4.59-15.28,6.83-22.94.19-.66.19-1.94-.12-2.09a4.67,4.67,0,0,0-2.76-.32,6.59,6.59,0,0,0-2.28,1.31c-2.44,1.74-4.85,3.52-7.29,5.26Q256.25,405.9,233.79,422c-.9.65-2.67,1-2.07,2.49.17.44,2.22.46,3.28.18q21.72-5.76,43.39-11.68A9.27,9.27,0,0,0,283.88,409.62Zm-76.25,51.47c.74-1.49,1.52-3,2.2-4.48q4.18-9.39,8.32-18.83c.54-1.23,2-2.64.47-3.76-.54-.39-2.37.61-3.37,1.31Q191.67,452.1,168.15,469c-2.25,1.61-4.48,3.26-6.67,5a5.64,5.64,0,0,0-1,1.5,17.13,17.13,0,0,0,1.86.3,3.36,3.36,0,0,0,1-.2l33.54-6.9C201.54,467.67,206.17,466.65,207.63,461.09Zm-63.85,31,.21.11c.74-1.36,1.57-2.68,2.21-4.09a20.14,20.14,0,0,0,.86-3,13.47,13.47,0,0,0-2.87,1.16c-7.14,5.08-14.22,10.24-21.33,15.35Q106.92,513,91,524.45a14.9,14.9,0,0,0-1.76,1.79,9.89,9.89,0,0,0,2.45.27c10.22-1.31,20.44-2.69,30.66-4a9.2,9.2,0,0,0,7.08-4.94Zm-69,45.48.12-1.27a5.29,5.29,0,0,0-1.69.51c-4.88,3.49-9.69,7.05-14.57,10.54q-19.92,14.24-39.86,28.44a9.93,9.93,0,0,0-1.48,1.61,8.69,8.69,0,0,0,2.08.48c7.66-.11,15.32-.49,23-.32a10.12,10.12,0,0,0,9.29-4.66c.56-.83,1.08-1.68,1.62-2.52,2.15-3.37,4.26-6.76,6.46-10.1C64.65,552.77,69.63,545.29,74.77,537.55Z" transform="translate(-17.29 -354.68)"/><path class="cls-4" d="M84.56,492.06a15.57,15.57,0,0,0-3.86-.57c-3.76.26-7.49.8-11.24,1.19a3.63,3.63,0,0,1-1.12-.26c.3-.28.54-.67.89-.82,2.54-1.13,5.08-2.23,7.64-3.29a11.2,11.2,0,0,0,7.23-11.23c-.32-5.83-3.33-10-8.59-11.28-10.66-2.62-21.38-5.06-32.07-7.59-2.27-.54-4.53-1.08-6.78-1.71-.41-.11-.72-.63-1.08-1a5,5,0,0,1,1.2-.35c3.11,0,6.22,0,9.33,0,10.09,0,20.19.25,30.27-.08C86.7,454.77,90.22,446,87,438.25c-.79-1.91-2.71-3.44-4.33-4.89-2-1.76-4.21-3.24-6.31-4.87a6.72,6.72,0,0,1-.85-1,5.59,5.59,0,0,1,1.53,0c.94.3,1.84.75,2.76,1.13,1.94.8,3.86,1.68,5.84,2.39,5.64,2,10.22-.39,13.38-4.12,2.74-3.24,3-9.18.57-13.23C95.84,407.41,92,401.19,88.12,395c-3.19-5.2-6.42-10.39-9.59-15.6a3.72,3.72,0,0,1-.2-1.37,5.52,5.52,0,0,1,1.07.67q10.71,10.71,21.39,21.43c2.5,2.51,4.91,5.13,7.56,7.47A10.22,10.22,0,0,0,118.56,410a18.82,18.82,0,0,0,5.13-2.09c4.19-2.89,4.77-7.23,4.16-11.88-.28-2.08-.76-4.14-1-6.23a13.23,13.23,0,0,1,.22-2.79,19.63,19.63,0,0,1,1.56,2.43c.81,1.82,1.35,3.78,2.25,5.55,2,3.95,4.57,7.27,9.41,8.1,5.29.9,11.1-2.08,12.7-7.24s2.87-10.7,4.18-16.09c1.76-7.22,3.41-14.48,5.11-21.71a21.31,21.31,0,0,1,.61-2.25,4.75,4.75,0,0,1,.69-1.07,3.33,3.33,0,0,1,.51,1.06c.12,1.77.24,3.55.24,5.32q0,17-.1,33.93a11.92,11.92,0,0,0,8.41,11.51C177.14,408,183,406,186,401.94c1.83-2.5,3.74-4.95,5.64-7.41.14-.19.46-.24.7-.35a1.55,1.55,0,0,1,0,.64c-.4,1.14-.8,2.29-1.26,3.42-.76,1.84-1.56,3.66-2.36,5.49a11,11,0,0,0,.39,9.61c2.8,5.91,9.52,8.76,15.33,5.74s11.26-6.64,16.84-10.05c6.34-3.87,12.65-7.8,19-11.68a7.19,7.19,0,0,1,1.42-.48,8.76,8.76,0,0,1-.9,1.32q-7,7.1-14.07,14.16c-3.85,3.84-7.69,7.7-11.61,11.47A48.35,48.35,0,0,1,210,428c-8.66,6.19-17.4,12.27-26,18.48-11.62,8.36-23.17,16.83-34.78,25.2-5.58,4-11.25,7.9-16.85,11.9C125.16,488.71,118.1,493.9,111,499q-14.1,10-28.27,20a6,6,0,0,1-1.12.71,2.5,2.5,0,0,1-.87.05,3.06,3.06,0,0,1,.44-.82c2.24-2.31,4.44-4.66,6.77-6.87,3.84-3.65,4.52-8,2.89-12.79C89.81,496.31,87.7,494.18,84.56,492.06Z" transform="translate(-17.29 -354.68)"/><path class="cls-5" d="M187.06,525.27c1-3.17,4.22-4.79,8.45-5.27,17-1.91,33.94-3.94,50.91-5.91a8.84,8.84,0,0,1,2,0c2.75.31,3.77,1.66,3,4.3-1.36,4.91-2.82,9.79-4.29,14.67-3.28,10.93-6.61,21.84-9.86,32.78-1.82,6.11-4.11,8-10.39,8.12q-27.45.55-54.89,1c-4.19.08-5.66-2.07-4-6,2.23-5.32,4.66-10.54,7-15.83s4.6-10.8,6.93-16.19C183.42,533.4,185,529.87,187.06,525.27Z" transform="translate(-17.29 -354.68)"/><path class="cls-5" d="M116.89,551.26c3.37-6.13,6.79-12.24,10.1-18.41a10.2,10.2,0,0,1,8.36-5.76c13.12-1.49,26.24-3.1,39.36-4.61,3.6-.41,4.72,1.11,3.36,4.52-1.12,2.78-2.42,5.48-3.65,8.21q-6.75,15-13.53,30c-.73,1.62-1.69,3.14-2.39,4.77-1.66,3.91-4.79,5.33-8.76,5.41l-25,.49c-5.21.1-10.43.2-15.65.26-4.12,0-5.1-1.4-3.17-5.06,3.53-6.67,7.25-13.25,10.89-19.87Z" transform="translate(-17.29 -354.68)"/><path class="cls-5" d="M209,474.77c.83-2.4,2.9-3.93,5.69-4.52q10.26-2.19,20.52-4.31,12.89-2.62,25.78-5.15a31.93,31.93,0,0,1,3.61-.59c3.14-.25,3.92.64,3.11,3.62-1,3.53-2,7-3.09,10.53-2.41,8.08-4.74,16.18-7.29,24.21a14.26,14.26,0,0,1-3.1,5.36,7.91,7.91,0,0,1-4.42,1.94c-16.61,2.26-33.23,4.39-49.84,6.56-.88.11-1.77.24-2.65.29-3.26.17-4.21-1.27-2.91-4.35.6-1.43,1.2-2.86,1.82-4.28C200.43,494.43,204.63,484.79,209,474.77Z" transform="translate(-17.29 -354.68)"/><path class="cls-5" d="M117.61,538.42Q108.3,555,99,571.48a9.36,9.36,0,0,1-8.92,5.2c-10.2,0-20.41.24-30.62.41-3.56.06-4.34-1.05-2.55-4.08,2.3-3.91,4.8-7.72,7.27-11.54s4.93-7.36,7.33-11.09q3.78-5.88,7.42-11.84a11.64,11.64,0,0,1,9.63-6c9.4-.82,18.74-2.15,28.11-3.27a2.19,2.19,0,0,1,.65-.1c1.26.21,3.33.13,3.57.75.43,1.11,0,2.73-.52,4a40.83,40.83,0,0,1-2.52,4.69Z" transform="translate(-17.29 -354.68)"/><path class="cls-5" d="M226.53,434.21c.9-2.51,3.34-4.23,6.72-5.12,14.16-3.69,28.29-7.51,42.44-11.28.43-.12.86-.23,1.29-.32,3.11-.66,4.74.52,3.63,3.89-2.81,8.51-5.28,17.14-7.71,25.77a9.1,9.1,0,0,1-7.58,7q-23.28,4.83-46.54,9.76a12.45,12.45,0,0,1-1.3.26c-2.42.21-3.33-.89-2.44-3.22,1.34-3.51,2.8-7,4.29-10.44C221.58,445.31,223.9,440.16,226.53,434.21Z" transform="translate(-17.29 -354.68)"/><path class="cls-6" d="M145.07,501c2.78-5.06,5.61-10.09,8.32-15.18a9.43,9.43,0,0,1,7.06-5q17.63-3.48,35.22-7a4.85,4.85,0,0,1,1.3-.29c1.24.12,2.48.34,3.73.52a15.21,15.21,0,0,1-.63,3.42c-3.62,8.45-7.31,16.86-11,25.27-1.12,2.54-2.17,5.11-3.45,7.56a9,9,0,0,1-6.8,4.83c-3.5.55-7,1-10.55,1.44q-13.68,1.82-27.37,3.6a26.26,26.26,0,0,1-3.64.29c-1.46,0-2-.89-1.55-2.23a15,15,0,0,1,1.18-2.38q4.06-7.44,8.17-14.88Z" transform="translate(-17.29 -354.68)"/><path class="cls-5" d="M283.88,409.62a9.27,9.27,0,0,1-5.49,3.35q-21.67,5.91-43.39,11.68c-1.06.28-3.11.26-3.28-.18-.6-1.51,1.17-1.84,2.07-2.49q22.43-16.11,44.91-32.15c2.44-1.74,4.85-3.52,7.29-5.26a6.59,6.59,0,0,1,2.28-1.31,4.67,4.67,0,0,1,2.76.32c.31.15.31,1.43.12,2.09-2.24,7.66-4.54,15.29-6.83,22.94A8.64,8.64,0,0,1,283.88,409.62Z" transform="translate(-17.29 -354.68)"/><path class="cls-6" d="M207.63,461.09c-1.46,5.56-6.09,6.58-10.76,7.54l-33.54,6.9a3.36,3.36,0,0,1-1,.2,17.13,17.13,0,0,1-1.86-.3,5.64,5.64,0,0,1,1-1.5c2.19-1.7,4.42-3.35,6.67-5q23.53-16.85,47.1-33.64c1-.7,2.83-1.7,3.37-1.31,1.55,1.12.07,2.53-.47,3.76q-4.14,9.44-8.32,18.83C209.15,458.13,208.37,459.6,207.63,461.09Z" transform="translate(-17.29 -354.68)"/><path class="cls-6" d="M143.78,492.07l-14.4,25.47a9.2,9.2,0,0,1-7.08,4.94c-10.22,1.34-20.44,2.72-30.66,4a9.89,9.89,0,0,1-2.45-.27A14.9,14.9,0,0,1,91,524.45q15.93-11.46,31.91-22.87c7.11-5.11,14.19-10.27,21.33-15.35a13.47,13.47,0,0,1,2.87-1.16,20.14,20.14,0,0,1-.86,3c-.64,1.41-1.47,2.73-2.21,4.09Z" transform="translate(-17.29 -354.68)"/><path class="cls-5" d="M74.77,537.55c-5.14,7.74-10.12,15.22-15.06,22.71-2.2,3.34-4.31,6.73-6.46,10.1-.54.84-1.06,1.69-1.62,2.52a10.12,10.12,0,0,1-9.29,4.66c-7.65-.17-15.31.21-23,.32a8.69,8.69,0,0,1-2.08-.48,9.93,9.93,0,0,1,1.48-1.61q19.9-14.25,39.86-28.44c4.88-3.49,9.69-7.05,14.57-10.54a5.29,5.29,0,0,1,1.69-.51Z" transform="translate(-17.29 -354.68)"/><path class="cls-3" d="M206,551a14.22,14.22,0,0,0,11.67-12.43c1.54,6.68,5.71,10.62,12.51,11.73a14.23,14.23,0,0,0-11.74,12.87C217.06,556.32,213,552.26,206,551Z" transform="translate(-17.29 -354.68)"/><path class="cls-3" d="M202.91,542.84a8.47,8.47,0,0,0-7-6.81,8.49,8.49,0,0,0,6.65-7.07,8.42,8.42,0,0,0,7.15,6.65A8.48,8.48,0,0,0,202.91,542.84Z" transform="translate(-17.29 -354.68)"/><path class="cls-3" d="M224.69,540.11a5.35,5.35,0,0,0-4.26-4.11,5.39,5.39,0,0,0,4-4.28,5.36,5.36,0,0,0,4.3,4A5.4,5.4,0,0,0,224.69,540.11Z" transform="translate(-17.29 -354.68)"/><path class="cls-3" d="M209.92,527.85a2.93,2.93,0,0,0,1.89-2,2.88,2.88,0,0,0,2.05,1.88,2.92,2.92,0,0,0-1.93,2A3,3,0,0,0,209.92,527.85Z" transform="translate(-17.29 -354.68)"/><path class="cls-3" d="M219.24,529.74l-1,1-1-1,1-1Z" transform="translate(-17.29 -354.68)"/></svg>