<svg id="Calque_2" data-name="Calque 2" xmlns="http://www.w3.org/2000/svg" viewBox="0 0 535.71 436.36"><defs><style>.cls-1{fill:#fff;}.cls-2{fill:#fab62c;}.cls-3{fill:#245aa6;}.cls-4{fill:#4e91ce;}</style></defs><path class="cls-1" d="M392.06,518.69c6.13,4.15,10.26,8.31,12.2,14,3.19,9.37,1.85,17.88-5.66,25-4.55,4.32-8.86,8.92-13.24,13.43a6.58,6.58,0,0,0-.85,1.6,4.71,4.71,0,0,0,1.69-.08,12.72,12.72,0,0,0,2.2-1.39c18.43-13,36.9-26,55.28-39.06,13.95-9.93,27.75-20.07,41.69-30,10.93-7.82,22-15.41,32.93-23.27,22.71-16.37,45.28-32.92,68-49.26,16.9-12.15,34-24,50.91-36.15a92.21,92.21,0,0,0,10-8.23c7.67-7.36,15.17-14.91,22.7-22.42q13.8-13.8,27.51-27.69a17.09,17.09,0,0,0,1.75-2.57,12.63,12.63,0,0,0-2.76.93c-12.39,7.59-24.72,15.28-37.12,22.85C648.44,363,637.74,370.11,626.43,376s-24.51.33-30-11.22c-3-6.3-3.52-12.4-.74-18.8,1.55-3.57,3.12-7.14,4.61-10.74.9-2.19,1.68-4.44,2.46-6.68a3.35,3.35,0,0,0-.06-1.25c-.47.23-1.1.32-1.38.69-3.71,4.8-7.44,9.59-11,14.49-5.72,7.83-17.24,11.79-26,8.92a23.35,23.35,0,0,1-16.46-22.51q.21-33.17.2-66.34c0-3.47-.22-6.94-.47-10.4a6.69,6.69,0,0,0-1-2.08,10.11,10.11,0,0,0-1.36,2.09,43.15,43.15,0,0,0-1.18,4.4c-3.33,14.15-6.56,28.33-10,42.45-2.55,10.53-5,21.12-8.17,31.46-3.13,10.08-14.48,15.92-24.83,14.15-9.46-1.62-14.46-8.11-18.4-15.84-1.76-3.46-2.81-7.28-4.4-10.84a35.48,35.48,0,0,0-3.06-4.75,26.53,26.53,0,0,0-.42,5.44c.49,4.09,1.44,8.12,2,12.2,1.19,9.08.06,17.57-8.12,23.21-2.92,2-6.59,3-10,4.1-7.49,2.3-14.28.35-20-4.67-5.18-4.58-9.89-9.71-14.79-14.62Q402.89,317.93,382,297a10.66,10.66,0,0,0-2.11-1.3c.12.9,0,2,.39,2.67,6.21,10.19,12.51,20.32,18.76,30.49,7.5,12.19,15.08,24.34,22.42,36.63,4.73,7.91,4.24,19.53-1.11,25.86-6.18,7.3-15.14,12-26.16,8.06-3.87-1.38-7.62-3.1-11.42-4.67-1.8-.74-3.56-1.62-5.41-2.2a9.9,9.9,0,0,0-3,0,12.69,12.69,0,0,0,1.67,1.9c4.1,3.18,8.45,6.09,12.32,9.54,3.18,2.83,6.93,5.82,8.48,9.55,6.3,15.15-.59,32.3-20.77,33-19.71.64-39.46.15-59.19.15-6.08,0-12.15,0-18.23,0a8.63,8.63,0,0,0-2.34.68c.7.64,1.29,1.65,2.11,1.87,4.38,1.23,8.82,2.29,13.25,3.34,20.91,4.94,41.85,9.72,62.71,14.85,10.28,2.52,16.16,10.66,16.79,22.05.53,9.83-4.82,18.09-14.14,22q-7.51,3.11-14.93,6.42c-.68.3-1.16,1.06-1.74,1.61a7.09,7.09,0,0,0,2.19.51c7.32-.77,14.62-1.82,22-2.32C387.38,517.4,390.33,518.42,392.06,518.69Zm200.41,64.94c-4,9-7.12,15.9-10.12,22.86-4.55,10.54-9,21.13-13.54,31.65-4.49,10.34-9.23,20.56-13.59,30.94-3.24,7.7-.35,11.9,7.83,11.75q53.66-1,107.32-2c12.29-.24,16.77-3.94,20.32-15.88,6.35-21.38,12.88-42.72,19.29-64.08,2.86-9.55,5.72-19.09,8.37-28.69,1.43-5.17-.56-7.8-5.93-8.41a17.45,17.45,0,0,0-3.89,0c-33.18,3.86-66.34,7.82-99.54,11.57C600.72,574.27,594.46,577.44,592.47,583.63Zm-137.2,50.82-.13-.07c-7.11,12.94-14.38,25.81-21.28,38.87-3.78,7.15-1.85,10,6.2,9.88,10.2-.11,20.4-.32,30.6-.51q24.42-.47,48.83-1c7.76-.17,13.9-2.95,17.14-10.58,1.36-3.19,3.23-6.16,4.66-9.32q13.29-29.32,26.46-58.7c2.41-5.34,5-10.62,7.13-16.05,2.67-6.67.47-9.65-6.56-8.85-25.66,3-51.3,6.11-77,9-7.58.86-12.78,4.6-16.34,11.25C468.55,610.52,461.87,622.46,455.27,634.45ZM635.35,484.88c-8.53,19.59-16.75,38.46-25,57.33-1.21,2.77-2.38,5.57-3.56,8.36-2.53,6-.67,8.83,5.69,8.5,1.73-.09,3.46-.34,5.18-.57,32.49-4.23,65-8.4,97.44-12.82,3.05-.41,6.63-1.67,8.65-3.79a27.74,27.74,0,0,0,6.07-10.49c5-15.7,9.54-31.54,14.24-47.33,2-6.85,4.15-13.69,6-20.59,1.59-5.82.07-7.56-6.07-7.07a62.88,62.88,0,0,0-7.06,1.14c-16.8,3.34-33.61,6.66-50.4,10.09q-20.08,4.1-40.12,8.41C641,477.21,637,480.19,635.35,484.88ZM456.68,609.34l.41.23c1.67-3,3.67-6,4.92-9.17.95-2.45,1.86-5.61,1-7.78-.47-1.21-4.52-1.06-7-1.47a4.84,4.84,0,0,0-1.28.19c-18.31,2.2-36.59,4.8-55,6.4-8.76.77-14.5,4.72-18.84,11.83q-7.11,11.67-14.5,23.16c-4.69,7.28-9.62,14.41-14.33,21.68-4.83,7.46-9.71,14.91-14.22,22.56-3.49,5.94-2,8.09,5,8,20-.32,39.92-.89,59.87-.79,8.22,0,13.62-3.41,17.44-10.17Q438.48,641.69,456.68,609.34Zm213-203.76c-5.16,11.64-9.69,21.7-14.08,31.83-2.92,6.75-5.78,13.54-8.39,20.41-1.73,4.54.05,6.69,4.76,6.29a20.59,20.59,0,0,0,2.55-.52q45.49-9.54,91-19.08c7.75-1.61,12.61-5.81,14.81-13.62,4.76-16.88,9.6-33.74,15.08-50.39,2.17-6.59-1-8.9-7.1-7.6-.84.18-1.69.39-2.52.62-27.66,7.37-55.28,14.85-83,22.07C676.16,397.31,671.4,400.69,669.64,405.58ZM510.36,536.2h0q-8,14.55-16,29.1a29.16,29.16,0,0,0-2.29,4.66c-.86,2.61.16,4.35,3,4.36a53.24,53.24,0,0,0,7.12-.57q26.76-3.5,53.53-7c6.87-.91,13.77-1.74,20.62-2.83a17.51,17.51,0,0,0,13.29-9.43c2.5-4.79,4.56-9.82,6.73-14.77,7.22-16.46,14.45-32.91,21.53-49.42.87-2,.83-4.45,1.22-6.68-2.43-.36-4.86-.79-7.3-1a9.46,9.46,0,0,0-2.53.56q-34.42,6.87-68.86,13.71c-6.09,1.2-10.8,4-13.82,9.69C521.33,516.47,515.79,526.31,510.36,536.2ZM781.77,357.5a20.87,20.87,0,0,0,.86-2c4.47-14.94,9-29.88,13.34-44.85.38-1.29.38-3.79-.22-4.08a9.24,9.24,0,0,0-5.4-.63c-1.6.32-3.05,1.57-4.46,2.57-4.78,3.39-9.48,6.87-14.25,10.28q-43.92,31.41-87.82,62.87c-1.74,1.25-5.2,1.91-4,4.85.34.86,4.35.9,6.41.36q42.48-11.25,84.85-22.84C775.22,362.91,779.25,361.18,781.77,357.5ZM632.69,458.15c1.44-2.92,3-5.79,4.29-8.76q8.19-18.37,16.26-36.81c1.06-2.42,4-5.17.93-7.37-1-.76-4.64,1.19-6.59,2.58q-46.11,32.77-92.09,65.76c-4.4,3.16-8.76,6.38-13,9.7-.87.68-1.29,1.95-1.92,2.94,1.21.21,2.42.5,3.65.59a7.33,7.33,0,0,0,1.9-.4l65.56-13.49C620.77,471,629.84,469,632.69,458.15ZM507.84,518.72l.41.22c1.46-2.66,3.08-5.25,4.33-8a39.6,39.6,0,0,0,1.68-5.9c-1.89.74-4,1.14-5.62,2.27-13.95,9.93-27.8,20-41.71,30Q435.76,559.68,404.55,582a27.13,27.13,0,0,0-3.43,3.51c1.59.19,3.23.73,4.77.53,20-2.57,40-5.27,60-7.89,6.32-.83,10.77-4.23,13.83-9.65Q493.78,543.64,507.84,518.72ZM372.92,607.63c0-.47.13-1.47.23-2.47-1.11.31-2.42.36-3.31,1-9.53,6.82-18.95,13.79-28.48,20.61q-39,27.82-77.94,55.6a19.77,19.77,0,0,0-2.89,3.15,17.07,17.07,0,0,0,4.06,1c15-.21,30-1,44.93-.64,8.1.17,13.76-2.78,18.14-9.11,1.11-1.61,2.12-3.28,3.17-4.93,4.21-6.58,8.34-13.21,12.63-19.73C353.12,637.39,362.87,622.78,372.92,607.63Z" transform="translate(-260.53 -250.09)"/><path class="cls-2" d="M392.06,518.69c-1.73-.27-4.68-1.29-7.56-1.1-7.34.5-14.64,1.55-22,2.32a7.09,7.09,0,0,1-2.19-.51c.58-.55,1.06-1.31,1.74-1.61q7.43-3.3,14.93-6.42c9.32-3.87,14.67-12.13,14.14-22-.63-11.39-6.51-19.53-16.79-22.05-20.86-5.13-41.8-9.91-62.71-14.85-4.43-1.05-8.87-2.11-13.25-3.34-.82-.22-1.41-1.23-2.11-1.87a8.63,8.63,0,0,1,2.34-.68c6.08-.05,12.15,0,18.23,0,19.73,0,39.48.49,59.19-.15,20.18-.67,27.07-17.82,20.77-33-1.55-3.73-5.3-6.72-8.48-9.55-3.87-3.45-8.22-6.36-12.32-9.54a12.69,12.69,0,0,1-1.67-1.9,9.9,9.9,0,0,1,3,0c1.85.58,3.61,1.46,5.41,2.2,3.8,1.57,7.55,3.29,11.42,4.67,11,3.94,20-.76,26.16-8.06,5.35-6.33,5.84-17.95,1.11-25.86C414.1,353.18,406.52,341,399,328.84c-6.25-10.17-12.55-20.3-18.76-30.49-.43-.71-.27-1.77-.39-2.67A10.66,10.66,0,0,1,382,297q20.92,20.92,41.8,41.89c4.9,4.91,9.61,10,14.79,14.62,5.68,5,12.47,7,20,4.67,3.45-1.06,7.12-2.09,10-4.1,8.18-5.64,9.31-14.13,8.12-23.21-.53-4.08-1.48-8.11-2-12.2a26.53,26.53,0,0,1,.42-5.44A35.48,35.48,0,0,1,478.2,318c1.59,3.56,2.64,7.38,4.4,10.84,3.94,7.73,8.94,14.22,18.4,15.84,10.35,1.77,21.7-4.07,24.83-14.15,3.2-10.34,5.62-20.93,8.17-31.46,3.44-14.12,6.67-28.3,10-42.45a43.15,43.15,0,0,1,1.18-4.4,10.11,10.11,0,0,1,1.36-2.09,6.69,6.69,0,0,1,1,2.08c.25,3.46.48,6.93.47,10.4q0,33.17-.2,66.34a23.35,23.35,0,0,0,16.46,22.51c8.81,2.87,20.33-1.09,26-8.92,3.58-4.9,7.31-9.69,11-14.49.28-.37.91-.46,1.38-.69a3.35,3.35,0,0,1,.06,1.25c-.78,2.24-1.56,4.49-2.46,6.68-1.49,3.6-3.06,7.17-4.61,10.74-2.78,6.4-2.25,12.5.74,18.8,5.48,11.55,18.63,17.13,30,11.22s22-13,32.92-19.64c12.4-7.57,24.73-15.26,37.12-22.85a12.63,12.63,0,0,1,2.76-.93,17.09,17.09,0,0,1-1.75,2.57Q683.76,349,670,362.85c-7.53,7.51-15,15.06-22.7,22.42a92.21,92.21,0,0,1-10,8.23c-16.93,12.1-34,24-50.91,36.15-22.73,16.34-45.3,32.89-68,49.26-10.9,7.86-22,15.45-32.93,23.27-13.94,10-27.74,20.11-41.69,30-18.38,13.09-36.85,26-55.28,39.06a12.72,12.72,0,0,1-2.2,1.39,4.71,4.71,0,0,1-1.69.08,6.58,6.58,0,0,1,.85-1.6c4.38-4.51,8.69-9.11,13.24-13.43,7.51-7.13,8.85-15.64,5.66-25C402.32,527,398.19,522.84,392.06,518.69Z" transform="translate(-260.53 -250.09)"/><path class="cls-3" d="M592.47,583.63c2-6.19,8.25-9.36,16.52-10.29,33.2-3.75,66.36-7.71,99.54-11.57a17.45,17.45,0,0,1,3.89,0c5.37.61,7.36,3.24,5.93,8.41-2.65,9.6-5.51,19.14-8.37,28.69-6.41,21.36-12.94,42.7-19.29,64.08-3.55,11.94-8,15.64-20.32,15.88q-53.65,1.07-107.32,2c-8.18.15-11.07-4.05-7.83-11.75,4.36-10.38,9.1-20.6,13.59-30.94,4.57-10.52,9-21.11,13.54-31.65C585.35,599.53,588.48,592.63,592.47,583.63Z" transform="translate(-260.53 -250.09)"/><path class="cls-3" d="M455.27,634.45c6.6-12,13.28-23.93,19.74-36,3.56-6.65,8.76-10.39,16.34-11.25,25.67-2.92,51.31-6.07,77-9,7-.8,9.23,2.18,6.56,8.85-2.18,5.43-4.72,10.71-7.13,16.05q-13.21,29.35-26.46,58.7c-1.43,3.16-3.3,6.13-4.66,9.32-3.24,7.63-9.38,10.41-17.14,10.58q-24.42.51-48.83,1c-10.2.19-20.4.4-30.6.51-8.05.09-10-2.73-6.2-9.88,6.9-13.06,14.17-25.93,21.28-38.87Z" transform="translate(-260.53 -250.09)"/><path class="cls-3" d="M635.35,484.88c1.64-4.69,5.68-7.67,11.14-8.83q20.06-4.28,40.12-8.41c16.79-3.43,33.6-6.75,50.4-10.09a62.88,62.88,0,0,1,7.06-1.14c6.14-.49,7.66,1.25,6.07,7.07-1.89,6.9-4,13.74-6,20.59-4.7,15.79-9.25,31.63-14.24,47.33a27.74,27.74,0,0,1-6.07,10.49c-2,2.12-5.6,3.38-8.65,3.79-32.46,4.42-64.95,8.59-97.44,12.82-1.72.23-3.45.48-5.18.57-6.36.33-8.22-2.48-5.69-8.5,1.18-2.79,2.35-5.59,3.56-8.36C618.6,523.34,626.82,504.47,635.35,484.88Z" transform="translate(-260.53 -250.09)"/><path class="cls-3" d="M456.68,609.34Q438.45,641.67,420.23,674c-3.82,6.76-9.22,10.21-17.44,10.17-20-.1-39.91.47-59.87.79-7,.12-8.48-2-5-8,4.51-7.65,9.39-15.1,14.22-22.56,4.71-7.27,9.64-14.4,14.33-21.68q7.39-11.49,14.5-23.16c4.34-7.11,10.08-11.06,18.84-11.83,18.37-1.6,36.65-4.2,55-6.4a4.84,4.84,0,0,1,1.28-.19c2.45.41,6.5.26,7,1.47.84,2.17-.07,5.33-1,7.78-1.25,3.21-3.25,6.13-4.92,9.17Z" transform="translate(-260.53 -250.09)"/><path class="cls-3" d="M669.64,405.58c1.76-4.89,6.52-8.27,13.13-10,27.7-7.22,55.32-14.7,83-22.07.83-.23,1.68-.44,2.52-.62,6.09-1.3,9.27,1,7.1,7.6-5.48,16.65-10.32,33.51-15.08,50.39-2.2,7.81-7.06,12-14.81,13.62q-45.51,9.47-91,19.08a20.59,20.59,0,0,1-2.55.52c-4.71.4-6.49-1.75-4.76-6.29,2.61-6.87,5.47-13.66,8.39-20.41C660,427.28,664.48,417.22,669.64,405.58Z" transform="translate(-260.53 -250.09)"/><path class="cls-4" d="M510.36,536.2c5.43-9.89,11-19.73,16.26-29.69,3-5.67,7.73-8.49,13.82-9.69q34.44-6.79,68.86-13.71a9.46,9.46,0,0,1,2.53-.56c2.44.23,4.87.66,7.3,1-.39,2.23-.35,4.65-1.22,6.68-7.08,16.51-14.31,33-21.53,49.42-2.17,5-4.23,10-6.73,14.77a17.51,17.51,0,0,1-13.29,9.43c-6.85,1.09-13.75,1.92-20.62,2.83q-26.78,3.54-53.53,7a53.24,53.24,0,0,1-7.12.57c-2.86,0-3.88-1.75-3-4.36a29.16,29.16,0,0,1,2.29-4.66q8-14.56,16-29.1Z" transform="translate(-260.53 -250.09)"/><path class="cls-3" d="M781.77,357.5c-2.52,3.68-6.55,5.41-10.73,6.56q-42.39,11.56-84.85,22.84c-2.06.54-6.07.5-6.41-.36-1.16-2.94,2.3-3.6,4-4.85q43.86-31.51,87.82-62.87c4.77-3.41,9.47-6.89,14.25-10.28,1.41-1,2.86-2.25,4.46-2.57a9.24,9.24,0,0,1,5.4.63c.6.29.6,2.79.22,4.08-4.37,15-8.87,29.91-13.34,44.85A20.87,20.87,0,0,1,781.77,357.5Z" transform="translate(-260.53 -250.09)"/><path class="cls-4" d="M632.69,458.15C629.84,469,620.77,471,611.64,472.89l-65.56,13.49a7.33,7.33,0,0,1-1.9.4c-1.23-.09-2.44-.38-3.65-.59.63-1,1.05-2.26,1.92-2.94,4.28-3.32,8.64-6.54,13-9.7q46-32.93,92.09-65.76c1.95-1.39,5.54-3.34,6.59-2.58,3,2.2.13,5-.93,7.37Q645.17,431,637,449.39C635.66,452.36,634.13,455.23,632.69,458.15Z" transform="translate(-260.53 -250.09)"/><path class="cls-4" d="M507.84,518.72q-14.07,24.9-28.16,49.8c-3.06,5.42-7.51,8.82-13.83,9.65-20,2.62-40,5.32-60,7.89-1.54.2-3.18-.34-4.77-.53a27.13,27.13,0,0,1,3.43-3.51q31.15-22.41,62.38-44.72c13.91-10,27.76-20.07,41.71-30,1.6-1.13,3.73-1.53,5.62-2.27a39.6,39.6,0,0,1-1.68,5.9c-1.25,2.76-2.87,5.35-4.33,8Z" transform="translate(-260.53 -250.09)"/><path class="cls-3" d="M372.92,607.63c-10.05,15.15-19.8,29.76-29.46,44.42-4.29,6.52-8.42,13.15-12.63,19.73-1.05,1.65-2.06,3.32-3.17,4.93-4.38,6.33-10,9.28-18.14,9.11-15-.32-29.95.43-44.93.64a17.07,17.07,0,0,1-4.06-1,19.77,19.77,0,0,1,2.89-3.15q38.94-27.84,77.94-55.6c9.53-6.82,18.95-13.79,28.48-20.61.89-.63,2.2-.68,3.31-1C373.05,606.16,373,607.16,372.92,607.63Z" transform="translate(-260.53 -250.09)"/><path class="cls-1" d="M624,632.7a25.12,25.12,0,0,0,20.64-22c2.73,11.8,10.11,18.77,22.13,20.74A25.15,25.15,0,0,0,646,654.24C643.5,642.14,636.24,635,624,632.7Z" transform="translate(-260.53 -250.09)"/><path class="cls-1" d="M618.47,618.3c-1.65-6.72-5.73-10.68-12.49-12.06,6.6-1.75,10.47-5.86,11.77-12.5,1.75,6.65,5.94,10.55,12.66,11.77C623.76,607.17,619.77,611.35,618.47,618.3Z" transform="translate(-260.53 -250.09)"/><path class="cls-1" d="M657,613.46a9.49,9.49,0,0,0-7.54-7.28,9.52,9.52,0,0,0,7.11-7.56,9.49,9.49,0,0,0,7.61,7.11A9.55,9.55,0,0,0,657,613.46Z" transform="translate(-260.53 -250.09)"/><path class="cls-1" d="M630.87,591.77a5.19,5.19,0,0,0,3.34-3.54,5.07,5.07,0,0,0,3.63,3.32,5.18,5.18,0,0,0-3.42,3.63A5.22,5.22,0,0,0,630.87,591.77Z" transform="translate(-260.53 -250.09)"/><path class="cls-1" d="M647.35,595.12l-1.68,1.79-1.77-1.69,1.68-1.77Z" transform="translate(-260.53 -250.09)"/></svg>